test01.ufo3
<glyph name="endash" format="2">
  <advance width="1646" height="1646"/>
  <unicode hex="2013"/>
  <outline>
    <contour>
      <point x="69" y="592" type="line"/>
      <point x="1549" y="592" type="line"/>
      <point x="1549" y="420" type="line"/>
      <point x="69" y="420" type="line"/>
    </contour>
    <contour>
      <point x="69" y="868" type="line"/>
      <point x="1549" y="868" type="line"/>
      <point x="1549" y="698" type="line"/>
      <point x="69" y="698" type="line"/>
    </contour>
  </outline>
</glyph>
<glyph name="konVOW" format="2">
  <advance width="80" height="80"/>
  <unicode hex="E001"/>
  <outline>
    <contour>
      <point x="80" y="80"/>
      <point x="80" y="0"/>
      <point x="0" y="0"/>
      <point x="0" y="80"/>
    </contour>
  </outline>
</glyph>
<glyph name="stemK" format="2">
  <advance width="120" height="120"/>
  <unicode hex="E008"/>
  <anchor x="60" y="52" name="inout"/>
  <anchor x="64" y="1650" name="_inout"/>
  <outline>
    <contour>
      <point x="120" y="1648" type="qcurve"/>
      <point x="120" y="60" type="line"/>
      <point x="120" y="0"/>
      <point x="60" y="0" type="qcurve"/>
      <point x="0" y="0"/>
      <point x="0" y="60" type="qcurve"/>
      <point x="0" y="1648" type="line"/>
      <point x="0" y="1709"/>
      <point x="60" y="1709" type="qcurve" smooth="yes"/>
      <point x="120" y="1709"/>
    </contour>
    <contour>
      <point x="0" y="60" type="move"/>
    </contour>
    <component base="konCONS"/>
    <component base="konCONS" yOffset="1589"/>
  </outline>
</glyph>
<glyph name="stemG" format="2">
  <advance width="120" height="120"/>
  <unicode hex="E00A"/>
  <outline>
    <contour>
      <point x="120" y="899" type="qcurve"/>
      <point x="120" y="60" type="line"/>
      <point x="120" y="0"/>
      <point x="60" y="0" type="qcurve"/>
      <point x="0" y="0"/>
      <point x="0" y="60" type="qcurve"/>
      <point x="0" y="899" type="line"/>
      <point x="0" y="960"/>
      <point x="60" y="960" type="qcurve" smooth="yes"/>
      <point x="120" y="960"/>
    </contour>
    <contour>
      <point x="0" y="60" type="move"/>
    </contour>
    <component base="konCONS"/>
    <component base="konCONS" yOffset="840"/>
  </outline>
</glyph>
<glyph name="stemI.krt" format="2">
  <advance width="121" height="121"/>
  <unicode hex="E00D"/>
  <outline>
    <contour>
      <point x="121" y="281" type="qcurve"/>
      <point x="121" y="60" type="line"/>
      <point x="121" y="0"/>
      <point x="61" y="0" type="qcurve"/>
      <point x="1" y="0"/>
      <point x="1" y="60" type="qcurve"/>
      <point x="1" y="281" type="line"/>
      <point x="1" y="342"/>
      <point x="61" y="342" type="qcurve" smooth="yes"/>
      <point x="121" y="342"/>
    </contour>
    <contour>
      <point x="1" y="60" type="move"/>
    </contour>
    <component base="konCONS"/>
    <component base="konCONS" yOffset="222"/>
  </outline>
</glyph>
<glyph name="dolDRZ.brzh" format="2">
  <advance width="581" height="581"/>
  <unicode hex="E012"/>
  <outline>
    <contour>
      <point x="-93.9268" y="-311.894" type="qcurve" smooth="yes"/>
      <point x="-34.1953" y="-325.166"/>
      <point x="-14.7412" y="-296.057" type="qcurve" smooth="yes"/>
      <point x="0" y="-272"/>
      <point x="0.40625" y="-214.805" type="qcurve"/>
      <point x="0.40625" y="-212.74" type="line"/>
      <point x="0.40625" y="-102.569" type="line"/>
      <point x="-110.453" y="-135.62" type="line"/>
      <point x="-173.112" y="-175.557"/>
      <point x="-173.112" y="-225.134" type="qcurve" smooth="yes"/>
      <point x="-173.112" y="-256.119"/>
      <point x="-149.356" y="-280.564" type="qcurve" smooth="yes"/>
      <point x="-125.602" y="-305.009"/>
    </contour>
    <contour>
      <point x="0.40625" y="39.2754" type="qcurve"/>
      <point x="0.40625" y="59.9316" type="line"/>
      <point x="120" y="60" type="line"/>
      <point x="120" y="-98" type="line" smooth="yes"/>
      <point x="120" y="-187"/>
      <point x="116.774" y="-223.068" type="qcurve" smooth="yes"/>
      <point x="111" y="-288"/>
      <point x="93.3633" y="-325.665" type="qcurve" smooth="yes"/>
      <point x="51" y="-418"/>
      <point x="-83.5977" y="-417.932" type="qcurve" smooth="yes"/>
      <point x="-174" y="-418"/>
      <point x="-227.165" y="-360.438" type="qcurve" smooth="yes"/>
      <point x="-278.735" y="-306.374"/>
      <point x="-280.529" y="-218.938" type="qcurve" smooth="yes"/>
      <point x="-282" y="-154"/>
      <point x="-245.411" y="-112.21" type="qcurve" smooth="yes"/>
      <point x="-214.594" y="-77.2163"/>
      <point x="-151.078" y="-34.7451" type="qcurve" smooth="yes"/>
      <point x="-128.703" y="-23.7534"/>
      <point x="-53.9902" y="13.1104" type="qcurve" smooth="yes"/>
      <point x="-38" y="21"/>
    </contour>
    <component base="konCONS"/>
    <component base="konCONS" yOffset="-68"/>
  </outline>
</glyph>
<glyph name="gorP.brzh" format="2">
  <advance width="461" height="461"/>
  <unicode hex="E01C"/>
  <outline>
    <contour>
      <point x="120" y="836" type="line"/>
      <point x="120" y="780"/>
      <point x="60" y="780" type="qcurve"/>
      <point x="0" y="780"/>
      <point x="0" y="836" type="qcurve"/>
      <point x="0" y="1305"/>
      <point x="0" y="1437" type="qcurve"/>
      <point x="0" y="1762"/>
      <point x="234.5" y="1762" type="qcurve" smooth="yes"/>
      <point x="460" y="1762"/>
      <point x="459" y="1438" type="qcurve" smooth="yes"/>
      <point x="458" y="1177"/>
      <point x="120" y="863" type="qcurve"/>
    </contour>
    <contour>
      <point x="120" y="1003" type="qcurve"/>
      <point x="332" y="1189"/>
      <point x="332" y="1437" type="qcurve" smooth="yes"/>
      <point x="332" y="1643"/>
      <point x="234" y="1643" type="qcurve" smooth="yes"/>
      <point x="120" y="1643"/>
      <point x="120" y="1437" type="qcurve" smooth="yes"/>
      <point x="120" y="1363"/>
    </contour>
    <component base="konCONS" yOffset="859"/>
    <component base="konCONS" yOffset="779"/>
  </outline>
</glyph>
<glyph name="gorST.brzh" format="2">
  <advance width="528" height="528"/>
  <unicode hex="E01E"/>
  <outline>
    <contour>
      <point x="179.492" y="-140.93" type="qcurve"/>
      <point x="195.325" y="-195.412"/>
      <point x="140.404" y="-224.65" type="qcurve"/>
      <point x="86.3252" y="-238.412"/>
      <point x="58.4873" y="-179.499" type="qcurve"/>
      <point x="-128.675" y="292.588"/>
      <point x="36.3086" y="624.521" type="qcurve"/>
      <point x="192.325" y="866.588"/>
      <point x="418.096" y="722.92" type="qcurve" smooth="yes"/>
      <point x="585.477" y="616.328"/>
      <point x="457.964" y="336.346" type="qcurve" smooth="yes"/>
      <point x="353.325" y="106.588"/>
      <point x="120" y="0" type="qcurve"/>
      <point x="163.325" y="-106.412"/>
    </contour>
    <contour>
      <point x="99.0742" y="124.665" type="qcurve"/>
      <point x="284.325" y="214.588"/>
      <point x="348.979" y="401.577" type="qcurve" smooth="yes"/>
      <point x="411.989" y="578.841"/>
      <point x="359.163" y="621.845" type="qcurve" smooth="yes"/>
      <point x="233.378" y="723.735"/>
      <point x="140.232" y="564.521" type="qcurve" smooth="yes"/>
      <point x="43.3252" y="399.588"/>
    </contour>
    <component base="konCONS" xScale="0.866025" yScale="0.866025" xyScale="-0.5" yxScale="0.5" xOffset="-28.9038" yOffset="40.3579"/>
    <component base="konCONS" xScale="0.819152" yScale="0.819152" xyScale="-0.573577" yxScale="0.573577" xOffset="36.8595" yOffset="-179.004"/>
  </outline>
</glyph>
<glyph name="gorBbrzh" format="2">
  <advance width="468" height="468"/>
  <unicode hex="E020"/>
  <outline>
    <contour>
      <point x="120" y="223" type="qcurve"/>
      <point x="205" y="300"/>
      <point x="267" y="392" type="qcurve" smooth="yes"/>
      <point x="427" y="634"/>
      <point x="207.986" y="633.5" type="qcurve" smooth="yes"/>
      <point x="120" y="633"/>
      <point x="120" y="427" type="qcurve" smooth="yes"/>
      <point x="120" y="326"/>
    </contour>
    <contour>
      <point x="120" y="83" type="qcurve"/>
      <point x="120" y="57"/>
      <point x="119.991" y="56" type="qcurve"/>
      <point x="120" y="0"/>
      <point x="60" y="0" type="qcurve"/>
      <point x="0" y="0"/>
      <point x="0" y="56" type="qcurve"/>
      <point x="0" y="423" type="line" smooth="yes"/>
      <point x="0" y="755"/>
      <point x="208" y="754" type="qcurve" smooth="yes"/>
      <point x="638" y="753"/>
      <point x="348" y="332" type="qcurve" smooth="yes"/>
      <point x="251" y="194"/>
    </contour>
    <component base="konCONS"/>
    <component base="konCONS" yOffset="79"/>
  </outline>
</glyph>
<glyph name="gorZD.brzhd" format="2">
  <advance width="430" height="430"/>
  <unicode hex="E021"/>
  <outline>
    <contour>
      <point x="221" y="-22" type="qcurve" smooth="yes"/>
      <point x="278" y="-69"/>
      <point x="233" y="-129" type="qcurve"/>
      <point x="177" y="-165"/>
      <point x="116" y="-94" type="qcurve"/>
      <point x="-149" y="176"/>
      <point x="-149" y="346" type="qcurve"/>
      <point x="-149" y="570"/>
      <point x="66" y="570" type="qcurve" smooth="yes"/>
      <point x="281" y="570"/>
      <point x="281" y="340" type="qcurve" smooth="yes"/>
      <point x="281" y="221"/>
      <point x="151" y="58" type="qcurve"/>
      <point x="173" y="18"/>
    </contour>
    <contour>
      <point x="73" y="141" type="qcurve"/>
      <point x="150" y="217"/>
      <point x="149" y="341" type="qcurve" smooth="yes"/>
      <point x="148" y="453"/>
      <point x="65.5" y="453" type="qcurve" smooth="yes"/>
      <point x="-29" y="453"/>
      <point x="-29" y="346" type="qcurve" smooth="yes"/>
      <point x="-29" y="234"/>
    </contour>
    <component base="konCONS" xOffset="132" yOffset="-139"/>
    <component base="konCONS"/>
  </outline>
</glyph>
<glyph name="koloZ" format="2">
  <advance width="449" height="449"/>
  <unicode hex="E061"/>
  <outline>
    <contour>
      <point x="225.899" y="128.02" type="qcurve" smooth="yes"/>
      <point x="276" y="128"/>
      <point x="304.033" y="161.767" type="qcurve" smooth="yes"/>
      <point x="331" y="194"/>
      <point x="331.158" y="233.283" type="qcurve" smooth="yes"/>
      <point x="331" y="264"/>
      <point x="304.033" y="309.278" type="qcurve" smooth="yes"/>
      <point x="277" y="355"/>
      <point x="225.899" y="354.645" type="qcurve" smooth="yes"/>
      <point x="179" y="355"/>
      <point x="115" y="270"/>
      <point x="115" y="197"/>
      <point x="178" y="128"/>
    </contour>
    <contour>
      <point x="223.472" y="480.951" type="qcurve" smooth="yes"/>
      <point x="304" y="481"/>
      <point x="372.451" y="417.797" type="qcurve" smooth="yes"/>
      <point x="406" y="387"/>
      <point x="427.914" y="339.259" type="qcurve" smooth="yes"/>
      <point x="449" y="291"/>
      <point x="449.371" y="239" type="qcurve" smooth="yes"/>
      <point x="449" y="189"/>
      <point x="426.295" y="138.408" type="qcurve" smooth="yes"/>
      <point x="403" y="87"/>
      <point x="373.262" y="63.2031" type="qcurve" smooth="yes"/>
      <point x="334" y="32"/>
      <point x="300.794" y="15.8379" type="qcurve" smooth="yes"/>
      <point x="268" y="0"/>
      <point x="179" y="0"/>
      <point x="144.933" y="16.2422" type="qcurve" smooth="yes"/>
      <point x="111" y="32"/>
      <point x="73.6807" y="63.2031" type="qcurve" smooth="yes"/>
      <point x="41" y="91"/>
      <point x="20.6475" y="139.218" type="qcurve" smooth="yes"/>
      <point x="0" y="188"/>
      <point x="0" y="239" type="qcurve" smooth="yes"/>
      <point x="0" y="351"/>
      <point x="73.6807" y="417.797" type="qcurve" smooth="yes"/>
      <point x="144" y="481"/>
    </contour>
    <component base="konCONS" xOffset="120" yOffset="352"/>
    <component base="konCONS" xOffset="201" yOffset="354"/>
    <component base="konCONS" xOffset="127" yOffset="8"/>
    <component base="konCONS" xOffset="207.794" yOffset="9.83789"/>
  </outline>
</glyph>
<glyph name="koloL" format="2">
  <advance width="266" height="266"/>
  <unicode hex="E062"/>
  <outline>
    <contour>
      <point x="132.8" y="291.801" type="qcurve" smooth="yes"/>
      <point x="180.8" y="291.801"/>
      <point x="220.8" y="254.2" type="qcurve" smooth="yes"/>
      <point x="266.4" y="212.601"/>
      <point x="266.4" y="145.4" type="qcurve" smooth="yes"/>
      <point x="266.4" y="111.801"/>
      <point x="239.2" y="51"/>
      <point x="221.601" y="36.6006" type="qcurve" smooth="yes"/>
      <point x="173.601" y="-1"/>
      <point x="132.8" y="-1" type="qcurve" smooth="yes"/>
      <point x="88.7998" y="-1"/>
      <point x="44" y="36.6006" type="qcurve" smooth="yes"/>
      <point x="24.7998" y="52.6006"/>
      <point x="0" y="111"/>
      <point x="0" y="145.4" type="qcurve" smooth="yes"/>
      <point x="0" y="214.2"/>
      <point x="44" y="254.2" type="qcurve" smooth="yes"/>
      <point x="85.6006" y="291.801"/>
    </contour>
    <component base="konCONS" xOffset="48" yOffset="8"/>
    <component base="konCONS" xOffset="98" yOffset="9"/>
    <component base="konCONS" xOffset="45" yOffset="161"/>
    <component base="konCONS" xOffset="99" yOffset="161"/>
  </outline>
</glyph>
<glyph name="luD3" format="2">
  <advance width="360" height="360"/>
  <unicode hex="E067"/>
  <outline>
    <contour>
      <point x="332" y="472" type="qcurve"/>
      <point x="120" y="335"/>
      <point x="120" y="60" type="qcurve"/>
      <point x="120" y="60"/>
      <point x="0" y="60" type="qcurve"/>
      <point x="0" y="403"/>
      <point x="269" y="581" type="qcurve"/>
      <point x="269" y="581"/>
    </contour>
    <component base="konCONS"/>
    <component base="konCONS" xOffset="241" yOffset="466"/>
  </outline>
</glyph>
<glyph name="luT1" format="2">
  <advance width="426" height="426"/>
  <unicode hex="E06A"/>
  <outline>
    <contour>
      <point x="32.5635" y="785.038" type="qcurve"/>
      <point x="-19.4365" y="815"/>
      <point x="11.6016" y="868.732" type="qcurve"/>
      <point x="40.5635" y="919"/>
      <point x="92.5635" y="888.962" type="qcurve"/>
      <point x="103.822" y="882.462"/>
      <point x="103.822" y="882.462" type="qcurve" smooth="yes"/>
      <point x="425.563" y="690"/>
      <point x="425.563" y="80" type="qcurve" smooth="yes"/>
      <point x="425.563" y="70"/>
      <point x="425.563" y="60" type="qcurve"/>
      <point x="305.563" y="60" type="line"/>
      <point x="305.563" y="63"/>
      <point x="305.563" y="80" type="qcurve" smooth="yes"/>
      <point x="306.566" y="608.616"/>
      <point x="44.6875" y="778.038" type="qcurve" smooth="yes"/>
      <point x="38.5635" y="782"/>
    </contour>
    <component base="konCONS" xOffset="305.563"/>
    <component base="konCONS" xScale="0.866025" yScale="0.866025" xyScale="-0.5" yxScale="0.5" xOffset="-19.3981" yOffset="815.038"/>
  </outline>
</glyph>
<glyph name="luSJ" format="2">
  <advance width="459" height="459"/>
  <unicode hex="E070"/>
  <outline>
    <contour>
      <point x="284.878" y="-188.952" type="qcurve" smooth="yes"/>
      <point x="259.454" y="-65.832" type="line" smooth="yes"/>
      <point x="304.225" y="-59.7793"/>
      <point x="334.008" y="22.0518" type="qcurve" smooth="yes"/>
      <point x="374.681" y="133.798"/>
      <point x="245.942" y="180.654" type="qcurve" smooth="yes"/>
      <point x="152.571" y="213.575"/>
      <point x="127.945" y="145.917" type="qcurve" smooth="yes"/>
      <point x="107.767" y="90.4756"/>
      <point x="133.138" y="81.2402" type="qcurve" smooth="yes"/>
      <point x="163.208" y="70.2959"/>
      <point x="167.654" y="82.5117" type="qcurve"/>
      <point x="280.418" y="41.4697" type="line"/>
      <point x="278.365" y="35.8311"/>
      <point x="276.529" y="30.7861" type="qcurve"/>
      <point x="236.98" y="-77.8711"/>
      <point x="94.1475" y="-25.8848" type="qcurve" smooth="yes"/>
      <point x="-41.168" y="23.3662"/>
      <point x="18.001" y="185.934" type="qcurve" smooth="yes"/>
      <point x="81.2998" y="359.844"/>
      <point x="284.591" y="286.84" type="qcurve" smooth="yes"/>
      <point x="518.574" y="201.677"/>
      <point x="438.911" y="-17.1943" type="qcurve" smooth="yes"/>
      <point x="386.213" y="-161.984"/>
    </contour>
    <component base="konCONS" xScale="0.939693" yScale="0.939693" xyScale="-0.34202" yxScale="0.34202" xOffset="148.073" yOffset="25.7884"/>
    <component base="konCONS" xScale="0.939693" yScale="0.939693" xyScale="-0.34202" yxScale="0.34202" xOffset="195.092" yOffset="-163.722"/>
  </outline>
</glyph>
<glyph name="luGL" format="2">
  <advance width="355" height="355"/>
  <unicode hex="E073"/>
  <outline>
    <contour>
      <point x="130" y="1" type="qcurve"/>
      <point x="130.395" y="121.097" type="line"/>
      <point x="175" y="121"/>
      <point x="207.5" y="152" type="qcurve" smooth="yes"/>
      <point x="240" y="183"/>
      <point x="239.872" y="227.576" type="qcurve" smooth="yes"/>
      <point x="240" y="272"/>
      <point x="207.5" y="302" type="qcurve" smooth="yes"/>
      <point x="175" y="332"/>
      <point x="130.395" y="332.353" type="qcurve"/>
      <point x="130" y="452.45" type="line"/>
      <point x="225" y="452"/>
      <point x="289.881" y="387.52" type="qcurve" smooth="yes"/>
      <point x="356" y="322"/>
      <point x="355.811" y="227.638" type="qcurve" smooth="yes"/>
      <point x="356" y="133"/>
      <point x="289.881" y="66.9316" type="qcurve" smooth="yes"/>
      <point x="224" y="1"/>
    </contour>
    <contour>
      <point x="130" y="81" type="move"/>
      <point x="130" y="41" type="line"/>
      <point x="110" y="61" type="line"/>
      <point x="150" y="61" type="line"/>
    </contour>
    <contour>
      <point x="158" y="121"/>
      <point x="190" y="89"/>
      <point x="190" y="61" type="qcurve" smooth="yes"/>
      <point x="190" y="31"/>
      <point x="172.966" y="15" type="qcurve" smooth="yes"/>
      <point x="158" y="1"/>
      <point x="102" y="1"/>
      <point x="87.0342" y="15" type="qcurve" smooth="yes"/>
      <point x="70" y="31"/>
      <point x="70" y="61" type="qcurve" smooth="yes"/>
      <point x="70" y="89"/>
      <point x="102" y="121"/>
    </contour>
    <contour>
      <point x="130" y="412" type="move"/>
      <point x="130" y="372" type="line"/>
      <point x="110" y="392" type="line"/>
      <point x="150" y="392" type="line"/>
    </contour>
    <contour>
      <point x="158" y="452"/>
      <point x="190" y="420"/>
      <point x="190" y="392" type="qcurve" smooth="yes"/>
      <point x="190" y="362"/>
      <point x="172.966" y="346" type="qcurve" smooth="yes"/>
      <point x="158" y="332"/>
      <point x="102" y="332"/>
      <point x="87.0342" y="346" type="qcurve" smooth="yes"/>
      <point x="70" y="362"/>
      <point x="70" y="392" type="qcurve" smooth="yes"/>
      <point x="70" y="420"/>
      <point x="102" y="452"/>
    </contour>
    <component base="koloL" yOffset="163"/>
  </outline>
</glyph>
<glyph name="okroci" format="2">
  <advance width="542" height="542"/>
  <unicode hex="E098"/>
  <outline>
    <contour>
      <point x="190.133" y="0" type="qcurve"/>
      <point x="190" y="120" type="line"/>
      <point x="248" y="123"/>
      <point x="292" y="150.212" type="qcurve" smooth="yes"/>
      <point x="308" y="160"/>
      <point x="345" y="197" type="qcurve" smooth="yes"/>
      <point x="384.333" y="236.333"/>
      <point x="410" y="328" type="qcurve" smooth="yes"/>
      <point x="431" y="403"/>
      <point x="410" y="476.5" type="qcurve" smooth="yes"/>
      <point x="386.012" y="565.772"/>
      <point x="346.5" y="595.5" type="qcurve" smooth="yes"/>
      <point x="272" y="653"/>
      <point x="224" y="656" type="qcurve" smooth="yes"/>
      <point x="162" y="659"/>
      <point x="101" y="590" type="qcurve"/>
      <point x="20" y="685" type="line"/>
      <point x="93" y="779"/>
      <point x="199.481" y="779.281" type="qcurve" smooth="yes"/>
      <point x="339" y="780"/>
      <point x="446.5" y="658" type="qcurve" smooth="yes"/>
      <point x="542" y="549"/>
      <point x="542" y="403" type="qcurve" smooth="yes"/>
      <point x="542" y="312"/>
      <point x="507" y="228" type="qcurve" smooth="yes"/>
      <point x="449" y="89"/>
      <point x="346" y="39.8164" type="qcurve" smooth="yes"/>
      <point x="257" y="-2"/>
    </contour>
    <component base="konCONS" xOffset="130"/>
    <component base="konCONS" xOffset="421" yOffset="343"/>
    <component base="konCONS" xOffset="330" yOffset="93"/>
    <component base="konCONS" yOffset="578"/>
  </outline>
</glyph>
<glyph name="okreci" format="2">
  <advance width="411" height="411"/>
  <unicode hex="E099"/>
  <outline>
    <contour>
      <point x="60.1328" y="1" type="qcurve"/>
      <point x="60" y="119" type="line"/>
      <point x="176" y="119"/>
      <point x="263.5" y="255" type="qcurve" smooth="yes"/>
      <point x="292" y="300"/>
      <point x="292" y="504"/>
      <point x="264" y="542" type="qcurve" smooth="yes"/>
      <point x="177" y="659"/>
      <point x="60" y="658.884" type="qcurve"/>
      <point x="60.1328" y="778.754" type="line"/>
      <point x="212" y="779"/>
      <point x="314.5" y="661" type="qcurve" smooth="yes"/>
      <point x="411" y="551"/>
      <point x="411.261" y="400.626" type="qcurve" smooth="yes"/>
      <point x="411" y="245"/>
      <point x="313.518" y="123.745" type="qcurve" smooth="yes"/>
      <point x="214" y="1"/>
    </contour>
    <contour>
      <point x="351" y="422" type="move"/>
      <point x="351" y="382" type="line"/>
      <point x="331" y="402" type="line"/>
      <point x="371" y="402" type="line"/>
    </contour>
    <contour>
      <point x="379" y="462"/>
      <point x="411" y="430"/>
      <point x="411" y="402" type="qcurve" smooth="yes"/>
      <point x="411" y="372"/>
      <point x="393.966" y="356" type="qcurve" smooth="yes"/>
      <point x="379" y="342"/>
      <point x="323" y="342"/>
      <point x="308.034" y="356" type="qcurve" smooth="yes"/>
      <point x="291" y="372"/>
      <point x="291" y="402" type="qcurve" smooth="yes"/>
      <point x="291" y="430"/>
      <point x="323" y="462"/>
    </contour>
    <contour>
      <point x="60" y="80" type="move"/>
      <point x="60" y="40" type="line"/>
      <point x="40" y="60" type="line"/>
      <point x="80" y="60" type="line"/>
    </contour>
    <contour>
      <point x="88" y="120"/>
      <point x="120" y="88"/>
      <point x="120" y="60" type="qcurve" smooth="yes"/>
      <point x="120" y="30"/>
      <point x="102.966" y="14" type="qcurve" smooth="yes"/>
      <point x="88" y="0"/>
      <point x="32" y="0"/>
      <point x="17.0342" y="14" type="qcurve" smooth="yes"/>
      <point x="0" y="30"/>
      <point x="0" y="60" type="qcurve" smooth="yes"/>
      <point x="0" y="88"/>
      <point x="32" y="120"/>
    </contour>
    <contour>
      <point x="60" y="738" type="move"/>
      <point x="60" y="698" type="line"/>
      <point x="40" y="718" type="line"/>
      <point x="80" y="718" type="line"/>
    </contour>
    <contour>
      <point x="88" y="778"/>
      <point x="120" y="746"/>
      <point x="120" y="718" type="qcurve" smooth="yes"/>
      <point x="120" y="688"/>
      <point x="102.966" y="672" type="qcurve" smooth="yes"/>
      <point x="88" y="658"/>
      <point x="32" y="658"/>
      <point x="17.0342" y="672" type="qcurve" smooth="yes"/>
      <point x="0" y="688"/>
      <point x="0" y="718" type="qcurve" smooth="yes"/>
      <point x="0" y="746"/>
      <point x="32" y="778"/>
    </contour>
  </outline>
</glyph>
<glyph name="okrodzi" format="2">
  <advance width="386" height="386"/>
  <unicode hex="E0A1"/>
  <outline>
    <contour>
      <point x="136.469" y="-0.0546875" type="qcurve"/>
      <point x="136.903" y="120.352" type="line"/>
      <point x="190" y="120"/>
      <point x="223.042" y="152" type="qcurve" smooth="yes"/>
      <point x="264" y="191"/>
      <point x="264.604" y="246.746" type="qcurve" smooth="yes"/>
      <point x="265" y="305"/>
      <point x="223" y="339" type="qcurve" smooth="yes"/>
      <point x="163" y="390"/>
      <point x="93.0801" y="336.575" type="qcurve"/>
      <point x="28" y="443.696" type="line"/>
      <point x="116" y="512"/>
      <point x="209" y="486" type="qcurve" smooth="yes"/>
      <point x="311" y="457"/>
      <point x="358" y="353" type="qcurve" smooth="yes"/>
      <point x="427" y="202"/>
      <point x="331" y="89" type="qcurve" smooth="yes"/>
      <point x="255" y="0"/>
    </contour>
    <component base="konCONS" xOffset="77"/>
    <component base="konCONS" xOffset="248" yOffset="105"/>
    <component base="konCONS" yOffset="331"/>
  </outline>
</glyph>
<glyph name="luU2" format="2">
  <advance width="773" height="773"/>
  <unicode hex="E0AF"/>
  <outline>
    <contour>
      <point x="146.966" y="-85" type="qcurve" smooth="yes"/>
      <point x="245" y="-155"/>
      <point x="656.86" y="546.105" type="qcurve"/>
      <point x="761.649" y="485.605" type="line"/>
      <point x="304" y="-310"/>
      <point x="108" y="-192" type="qcurve" smooth="yes"/>
      <point x="-17" y="-117"/>
      <point x="0.666016" y="64.3105" type="qcurve"/>
      <point x="120.21" y="53.8516" type="line"/>
      <point x="102" y="-52"/>
    </contour>
    <component base="konCONS" xScale="0.866025" yScale="0.866025" xyScale="-0.5" yxScale="0.5" xOffset="627.727" yOffset="493.644"/>
    <component base="konCONS" xScale="0.996194" yScale="0.996194" xyScale="-0.0871559" yxScale="0.0871559" xOffset="-4.56331" yOffset="4.5387"/>
  </outline>
</glyph>
<glyph name="luU5" format="2">
  <advance width="455" height="455"/>
  <unicode hex="E0B2"/>
  <outline>
    <contour>
      <point x="435.5" y="588.999" type="qcurve"/>
      <point x="422.742" y="571.25"/>
      <point x="422" y="565.616" type="qcurve" smooth="yes"/>
      <point x="422" y="429"/>
      <point x="515.128" y="429.566" type="qcurve" smooth="yes"/>
      <point x="636.549" y="429.013"/>
      <point x="720.707" y="747.671" type="qcurve"/>
      <point x="824.252" y="687.907" type="line"/>
      <point x="715.898" y="313.386"/>
      <point x="524.994" y="313.144" type="qcurve" smooth="yes"/>
      <point x="377" y="313"/>
      <point x="331" y="408" type="qcurve"/>
      <point x="331" y="408"/>
      <point x="114" y="32.1445" type="qcurve"/>
      <point x="10.0762" y="92.1445" type="line"/>
      <point x="166" y="362"/>
      <point x="331.576" y="648.999" type="qcurve"/>
      <point x="384" y="619"/>
    </contour>
    <component base="konCONS" xScale="0.866025" yScale="0.866025" xyScale="-0.5" yxScale="0.5" xOffset="-19.9235" yOffset="40.1833"/>
    <component base="konCONS" xScale="0.866025" yScale="0.866025" xyScale="-0.5" yxScale="0.5" xOffset="690.329" yOffset="695.946"/>
    <component base="konCONS" xScale="0.866025" yScale="0.866025" xyScale="-0.5" yxScale="0.5" xOffset="301.577" yOffset="597.038"/>
  </outline>
</glyph>
<glyph name="luNdol" format="2">
  <advance width="452" height="452"/>
  <unicode hex="E0B8"/>
  <outline>
    <contour>
      <point x="219" y="55" type="qcurve" smooth="yes"/>
      <point x="304" y="66"/>
      <point x="335" y="129" type="qcurve"/>
      <point x="449" y="81" type="line"/>
      <point x="443" y="68"/>
      <point x="435" y="58.1309" type="qcurve" smooth="yes"/>
      <point x="360" y="-52"/>
      <point x="254" y="-66" type="qcurve" smooth="yes"/>
      <point x="80.0107" y="-89.3857"/>
      <point x="18" y="8.13672" type="qcurve" smooth="yes"/>
      <point x="14" y="16"/>
      <point x="9" y="24" type="qcurve"/>
      <point x="111" y="96" type="line"/>
      <point x="155" y="47"/>
    </contour>
    <component base="konCONS" xOffset="332" yOffset="45"/>
    <component base="konCONS"/>
  </outline>
</glyph>
<glyph name="dolTW" format="2">
  <advance width="237" height="237"/>
  <unicode hex="E0C2"/>
  <anchor x="206" y="70" name="inout"/>
  <anchor x="58" y="80" name="_inout"/>
  <outline>
    <contour>
      <point x="0" y="96" type="qcurve"/>
      <point x="5" y="108"/>
      <point x="17" y="126" type="qcurve" smooth="yes"/>
      <point x="26" y="140"/>
      <point x="54" y="140" type="qcurve" smooth="yes"/>
      <point x="91" y="140"/>
      <point x="105" y="122.5" type="qcurve" smooth="yes"/>
      <point x="118" y="106"/>
      <point x="129" y="105" type="qcurve" smooth="yes"/>
      <point x="163" y="104"/>
      <point x="170" y="111" type="qcurve" smooth="yes"/>
      <point x="178" y="119"/>
      <point x="209" y="120" type="qcurve" smooth="yes"/>
      <point x="227" y="121"/>
      <point x="241" y="110" type="qcurve" smooth="yes"/>
      <point x="259" y="97"/>
      <point x="262.711" y="79.082" type="qcurve" smooth="yes"/>
      <point x="276" y="18"/>
      <point x="214.509" y="-4.88086" type="qcurve" smooth="yes"/>
      <point x="190" y="-14"/>
      <point x="126" y="-13.8076" type="qcurve" smooth="yes"/>
      <point x="0" y="-14"/>
      <point x="0" y="95" type="qcurve" smooth="yes"/>
      <point x="0" y="96"/>
    </contour>
    <component base="konCONS" xOffset="145"/>
    <component base="konCONS" yOffset="20"/>
  </outline>
</glyph>
<glyph name="dolETW" format="2">
  <advance width="335" height="335"/>
  <unicode hex="E0C4"/>
  <outline>
    <contour>
      <point x="0" y="180" type="line"/>
      <point x="120.187" y="180" type="line"/>
      <point x="121.187" y="169.65" type="line" smooth="yes"/>
      <point x="121" y="156"/>
      <point x="136" y="146" type="qcurve" smooth="yes"/>
      <point x="147" y="139"/>
      <point x="165.509" y="140.587" type="qcurve" smooth="yes"/>
      <point x="181.695" y="140.587" type="line"/>
      <point x="181.695" y="20.084" type="line"/>
      <point x="169.623" y="20.084" type="line" smooth="yes"/>
      <point x="101" y="20"/>
      <point x="63" y="42" type="qcurve" smooth="yes"/>
      <point x="0" y="79"/>
      <point x="0" y="169.65" type="qcurve" smooth="yes"/>
    </contour>
    <component base="konCONS" yOffset="120"/>
    <component base="konCONS" xOffset="122" yOffset="20"/>
  </outline>
</glyph>
<glyph name="dolMKE" format="2">
  <advance width="120" height="120"/>
  <unicode hex="E0C5"/>
  <outline>
    <contour>
      <point x="120" y="140" type="line"/>
      <point x="120" y="120" type="line"/>
      <point x="120" y="7" type="line"/>
      <point x="0" y="-10" type="line"/>
      <point x="0" y="38" type="line"/>
      <point x="0" y="140" type="line"/>
    </contour>
    <component base="konCONS"/>
    <component base="konCONS" yOffset="80"/>
  </outline>
</glyph>
<glyph name="gorOMluk" format="2">
  <advance width="780" height="780"/>
  <unicode hex="E0CB"/>
  <outline>
    <contour>
      <point x="780" y="22" type="line"/>
      <point x="660" y="23" type="line"/>
      <point x="660" y="59" type="line" smooth="yes"/>
      <point x="660" y="202"/>
      <point x="375" y="201" type="qcurve" smooth="yes"/>
      <point x="196" y="200"/>
      <point x="114" y="31" type="qcurve"/>
      <point x="5" y="89" type="line"/>
      <point x="137" y="330"/>
      <point x="376" y="331" type="qcurve" smooth="yes"/>
      <point x="780" y="333"/>
      <point x="780" y="59" type="qcurve" smooth="yes"/>
    </contour>
    <component base="konCONS" xScale="-1" yScale="-1" xOffset="780" yOffset="83"/>
    <component base="konCONS" xScale="-1" yScale="-1" xOffset="120" yOffset="120"/>
  </outline>
</glyph>
